<svg width="38" height="46" viewBox="0 0 38 46" fill="none" xmlns="http://www.w3.org/2000/svg">
<g id="Group">
<path id="Vector" d="M19 0.166992C15.1322 0.166992 11.4229 1.70345 8.68798 4.43835C5.95308 7.17326 4.41662 10.8826 4.41662 14.7503V22.1003C4.41692 22.4235 4.34203 22.7423 4.19787 23.0316L0.62079 30.1837C0.446053 30.5331 0.363544 30.9214 0.381099 31.3116C0.398654 31.7019 0.515691 32.0812 0.721092 32.4135C0.926494 32.7459 1.21344 33.0201 1.55468 33.2104C1.89592 33.4006 2.28012 33.5004 2.67079 33.5003H35.3291C35.7198 33.5004 36.104 33.4006 36.4452 33.2104C36.7865 33.0201 37.0734 32.7459 37.2788 32.4135C37.4842 32.0812 37.6013 31.7019 37.6188 31.3116C37.6364 30.9214 37.5539 30.5331 37.3791 30.1837L33.8041 23.0316C33.6592 22.7425 33.5836 22.4237 33.5833 22.1003V14.7503C33.5833 10.8826 32.0468 7.17326 29.3119 4.43835C26.577 1.70345 22.8677 0.166992 19 0.166992ZM19 39.7503C17.7069 39.751 16.4455 39.3506 15.3896 38.6044C14.3336 37.8581 13.5351 36.8027 13.1041 35.5837H24.8958C24.4648 36.8027 23.6663 37.8581 22.6103 38.6044C21.5544 39.3506 20.293 39.751 19 39.7503Z" fill="#597545"/>
</g>
</svg>
