<svg width="22" height="22" viewBox="0 0 22 22" fill="none" xmlns="http://www.w3.org/2000/svg">
<g id="IC Process">
<path id="Vector" d="M11 0C8.08592 0.010145 5.29429 1.17313 3.23492 3.23492L0.916667 0.916667V6.33325C0.916546 6.46462 0.942332 6.59472 0.992548 6.71611C1.04276 6.8375 1.11642 6.94779 1.20932 7.04068C1.30221 7.13357 1.4125 7.20723 1.53389 7.25745C1.65528 7.30767 1.78538 7.33345 1.91675 7.33333H7.33333L5.17642 5.17642C6.52689 3.83245 8.30154 2.99825 10.1981 2.81593C12.0946 2.6336 13.9957 3.11443 15.5774 4.17649C17.1592 5.23856 18.3239 6.81617 18.873 8.64059C19.4221 10.465 19.3217 12.4234 18.589 14.1821C17.8562 15.9408 16.5363 17.3911 14.8543 18.2858C13.1722 19.1806 11.2319 19.4646 9.36397 19.0893C7.49603 18.714 5.81597 17.7027 4.60998 16.2277C3.40399 14.7527 2.74667 12.9053 2.75 11H0C0 13.1756 0.645139 15.3023 1.85383 17.1113C3.06253 18.9202 4.78049 20.3301 6.79048 21.1627C8.80047 21.9952 11.0122 22.2131 13.146 21.7886C15.2798 21.3642 17.2398 20.3165 18.7782 18.7782C20.3165 17.2398 21.3642 15.2798 21.7886 13.146C22.2131 11.0122 21.9952 8.80047 21.1627 6.79048C20.3301 4.78049 18.9202 3.06253 17.1113 1.85383C15.3023 0.645139 13.1756 0 11 0Z" fill="#E7F0DD"/>
<path id="Vector_2" d="M9.16699 6.41699V12.4862L12.3194 15.6396L14.2646 13.6944L11.917 11.3477V6.41699H9.16699Z" fill="#E7F0DD"/>
</g>
</svg>
