<svg width="22" height="22" viewBox="0 0 22 22" fill="none" xmlns="http://www.w3.org/2000/svg">
<g id="IC SELESAI">
<path id="Vector" d="M21.0604 5.50367L16.4963 0.939583C15.8904 0.333667 15.0847 0 14.2276 0H7.77242C6.91533 0 6.1105 0.333667 5.50367 0.939583L0.939583 5.50367C0.333667 6.10958 0 6.91533 0 7.77242V14.2276C0 15.0847 0.333667 15.8895 0.939583 16.4963L5.50367 21.0604C6.10958 21.6663 6.91533 22 7.77242 22H14.2276C15.0847 22 15.8895 21.6663 16.4963 21.0604L21.0604 16.4963C21.6663 15.8904 22 15.0847 22 14.2276V7.77242C22 6.91533 21.6663 6.1105 21.0604 5.50367ZM19.25 14.2276C19.25 14.3477 19.2014 14.4659 19.1162 14.5521L14.5521 19.1162C14.4668 19.2014 14.3486 19.25 14.2276 19.25H7.77242C7.65233 19.25 7.53408 19.2014 7.44792 19.1162L2.88383 14.5521C2.79858 14.4668 2.75 14.3486 2.75 14.2276V7.77242C2.75 7.65233 2.79858 7.53408 2.88383 7.44792L7.44792 2.88383C7.53317 2.79858 7.65142 2.75 7.77242 2.75H14.2276C14.3477 2.75 14.4659 2.79858 14.5521 2.88383L19.1162 7.44792C19.2014 7.53317 19.25 7.65142 19.25 7.77242V14.2276ZM14.7895 6.87133L16.7337 8.81558L11.5747 13.9746C11.1293 14.421 10.5362 14.6667 9.90458 14.6667C9.273 14.6667 8.68083 14.4201 8.23442 13.9746L5.26533 11.0064L7.20958 9.06217L9.90367 11.7563L14.7886 6.87133H14.7895Z" fill="white"/>
</g>
</svg>
