<svg width="200" height="200" viewBox="0 0 200 200" fill="none" xmlns="http://www.w3.org/2000/svg">
<g id="icon-park-outline:add-pic">
<g id="Group">
<path id="Vector" d="M158.333 87.5013V166.668C158.333 168.878 157.455 170.998 155.893 172.561C154.33 174.123 152.21 175.001 150 175.001H33.3333C31.1232 175.001 29.0036 174.123 27.4408 172.561C25.878 170.998 25 168.878 25 166.668V50.0013C25 47.7912 25.878 45.6716 27.4408 44.1087C29.0036 42.5459 31.1232 41.668 33.3333 41.668H109.85" stroke="white" stroke-width="2" stroke-miterlimit="10" stroke-linecap="round" stroke-linejoin="round"/>
<path id="Vector_2" d="M141.667 41.6673H175M158.312 24.1465V57.4798M50 129.292L75 95.834L87.5 108.334L102.083 85.4173L133.333 129.292H50Z" stroke="white" stroke-width="2" stroke-miterlimit="10" stroke-linecap="round" stroke-linejoin="round"/>
</g>
</g>
</svg>
