<svg width="22" height="22" viewBox="0 0 22 22" fill="none" xmlns="http://www.w3.org/2000/svg">
<g id="material-symbols:reorder-rounded">
<path id="Vector" d="M3.66667 17.4163C3.40695 17.4163 3.18939 17.3283 3.014 17.1523C2.83861 16.9763 2.75061 16.7588 2.75 16.4997C2.74939 16.2406 2.83739 16.023 3.014 15.847C3.19061 15.671 3.40817 15.583 3.66667 15.583H18.3333C18.5931 15.583 18.8109 15.671 18.9869 15.847C19.1629 16.023 19.2506 16.2406 19.25 16.4997C19.2494 16.7588 19.1614 16.9766 18.986 17.1533C18.8106 17.3299 18.5931 17.4176 18.3333 17.4163H3.66667ZM3.66667 13.7497C3.40695 13.7497 3.18939 13.6617 3.014 13.4857C2.83861 13.3097 2.75061 13.0921 2.75 12.833C2.74939 12.5739 2.83739 12.3563 3.014 12.1803C3.19061 12.0043 3.40817 11.9163 3.66667 11.9163H18.3333C18.5931 11.9163 18.8109 12.0043 18.9869 12.1803C19.1629 12.3563 19.2506 12.5739 19.25 12.833C19.2494 13.0921 19.1614 13.31 18.986 13.4866C18.8106 13.6632 18.5931 13.7509 18.3333 13.7497H3.66667ZM3.66667 10.083C3.40695 10.083 3.18939 9.99501 3.014 9.81901C2.83861 9.64301 2.75061 9.42545 2.75 9.16634C2.74939 8.90723 2.83739 8.68967 3.014 8.51367C3.19061 8.33767 3.40817 8.24967 3.66667 8.24967H18.3333C18.5931 8.24967 18.8109 8.33767 18.9869 8.51367C19.1629 8.68967 19.2506 8.90723 19.25 9.16634C19.2494 9.42545 19.1614 9.64331 18.986 9.81992C18.8106 9.99654 18.5931 10.0842 18.3333 10.083H3.66667ZM3.66667 6.41634C3.40695 6.41634 3.18939 6.32834 3.014 6.15234C2.83861 5.97634 2.75061 5.75879 2.75 5.49967C2.74939 5.24056 2.83739 5.02301 3.014 4.84701C3.19061 4.67101 3.40817 4.58301 3.66667 4.58301H18.3333C18.5931 4.58301 18.8109 4.67101 18.9869 4.84701C19.1629 5.02301 19.2506 5.24056 19.25 5.49967C19.2494 5.75879 19.1614 5.97665 18.986 6.15326C18.8106 6.32987 18.5931 6.41756 18.3333 6.41634H3.66667Z" fill="#E7F0DD"/>
</g>
</svg>
