<svg width="200" height="200" viewBox="0 0 200 200" fill="none" xmlns="http://www.w3.org/2000/svg">
<g id="material-symbols:add-2-rounded">
<g id="Group 483345">
<path id="Vector" d="M100 175C97.6389 175 95.6611 174.2 94.0667 172.6C92.4723 171 91.6723 169.022 91.6667 166.667V108.333H33.3334C30.9723 108.333 28.9945 107.533 27.4 105.933C25.8056 104.333 25.0056 102.356 25 100C24.9945 97.6445 25.7945 95.6667 27.4 94.0667C29.0056 92.4667 30.9834 91.6667 33.3334 91.6667H91.6667V33.3334C91.6667 30.9723 92.4667 28.9945 94.0667 27.4C95.6667 25.8056 97.6445 25.0056 100 25C102.356 24.9945 104.336 25.7945 105.942 27.4C107.547 29.0056 108.344 30.9834 108.333 33.3334V91.6667H166.667C169.028 91.6667 171.008 92.4667 172.608 94.0667C174.208 95.6667 175.006 97.6445 175 100C174.994 102.356 174.194 104.336 172.6 105.942C171.006 107.547 169.028 108.344 166.667 108.333H108.333V166.667C108.333 169.028 107.533 171.008 105.933 172.608C104.333 174.208 102.356 175.006 100 175Z" fill="#303030"/>
</g>
</g>
</svg>
