<svg width="51" height="53" viewBox="0 0 51 53" fill="none" xmlns="http://www.w3.org/2000/svg">
<g id="material-symbols:receipt-rounded">
<path id="Vector" d="M9.97827 42.1954V9.7349C9.97827 9.52682 10.0645 9.38592 10.237 9.3122C10.4094 9.23848 10.5675 9.27534 10.7112 9.42278L11.9616 10.7159C12.1341 10.8942 12.3353 10.9834 12.5652 10.9834C12.7952 10.9834 12.9964 10.8942 13.1689 10.7159L14.5486 9.28902C14.721 9.11066 14.9222 9.02148 15.1522 9.02148C15.3821 9.02148 15.5833 9.11066 15.7558 9.28902L17.1355 10.7159C17.308 10.8942 17.5092 10.9834 17.7391 10.9834C17.9691 10.9834 18.1703 10.8942 18.3428 10.7159L19.7225 9.28902C19.8949 9.11066 20.0961 9.02148 20.3261 9.02148C20.556 9.02148 20.7573 9.11066 20.9297 9.28902L22.3094 10.7159C22.4819 10.8942 22.6831 10.9834 22.9131 10.9834C23.143 10.9834 23.3442 10.8942 23.5167 10.7159L24.8964 9.28902C25.0689 9.11066 25.2701 9.02148 25.5 9.02148C25.73 9.02148 25.9312 9.11066 26.1036 9.28902L27.4833 10.7159C27.6558 10.8942 27.857 10.9834 28.087 10.9834C28.3169 10.9834 28.5181 10.8942 28.6906 10.7159L30.0703 9.28902C30.2428 9.11066 30.444 9.02148 30.6739 9.02148C30.9039 9.02148 31.1051 9.11066 31.2775 9.28902L32.6573 10.7159C32.8297 10.8942 33.0309 10.9834 33.2609 10.9834C33.4908 10.9834 33.692 10.8942 33.8645 10.7159L35.2442 9.28902C35.4167 9.11066 35.6179 9.02148 35.8478 9.02148C36.0778 9.02148 36.279 9.11066 36.4515 9.28902L37.8312 10.7159C38.0036 10.8942 38.2048 10.9834 38.4348 10.9834C38.6647 10.9834 38.866 10.8942 39.0384 10.7159L40.2888 9.42278C40.4325 9.27415 40.5906 9.23729 40.7631 9.3122C40.9355 9.38711 41.0217 9.52801 41.0217 9.7349V42.1954C41.0217 42.6115 40.8493 42.8939 40.5044 43.0426C40.1594 43.1912 39.8432 43.1169 39.5558 42.8196L39.0384 42.2846C38.866 42.1062 38.6647 42.017 38.4348 42.017C38.2048 42.017 38.0036 42.1062 37.8312 42.2846L36.4515 43.7114C36.279 43.8898 36.0778 43.9789 35.8478 43.9789C35.6179 43.9789 35.4167 43.8898 35.2442 43.7114L33.8645 42.2846C33.692 42.1062 33.4908 42.017 33.2609 42.017C33.0309 42.017 32.8297 42.1062 32.6573 42.2846L31.2775 43.7114C31.1051 43.8898 30.9039 43.9789 30.6739 43.9789C30.444 43.9789 30.2428 43.8898 30.0703 43.7114L28.6906 42.2846C28.5181 42.1062 28.3169 42.017 28.087 42.017C27.857 42.017 27.6558 42.1062 27.4833 42.2846L26.1036 43.7114C25.9312 43.8898 25.73 43.9789 25.5 43.9789C25.2701 43.9789 25.0689 43.8898 24.8964 43.7114L23.5167 42.2846C23.3442 42.1062 23.143 42.017 22.9131 42.017C22.6831 42.017 22.4819 42.1062 22.3094 42.2846L20.9297 43.7114C20.7573 43.8898 20.556 43.9789 20.3261 43.9789C20.0961 43.9789 19.8949 43.8898 19.7225 43.7114L18.3428 42.2846C18.1703 42.1062 17.9691 42.017 17.7391 42.017C17.5092 42.017 17.308 42.1062 17.1355 42.2846L15.7558 43.7114C15.5833 43.8898 15.3821 43.9789 15.1522 43.9789C14.9222 43.9789 14.721 43.8898 14.5486 43.7114L13.1689 42.2846C12.9964 42.1062 12.7952 42.017 12.5652 42.017C12.3353 42.017 12.1341 42.1062 11.9616 42.2846L11.4442 42.8196C11.1568 43.1169 10.8406 43.1912 10.4957 43.0426C10.1507 42.8939 9.97827 42.6115 9.97827 42.1954ZM16.8768 35.4179H34.1232C34.6118 35.4179 35.0217 35.2467 35.3529 34.9043C35.684 34.5618 35.849 34.1385 35.8478 33.6344C35.8467 33.1302 35.6811 32.7069 35.3511 32.3645C35.0212 32.0221 34.6118 31.8508 34.1232 31.8508H16.8768C16.3882 31.8508 15.9789 32.0221 15.6489 32.3645C15.3189 32.7069 15.1533 33.1302 15.1522 33.6344C15.151 34.1385 15.3166 34.5624 15.6489 34.906C15.9812 35.2497 16.3905 35.4203 16.8768 35.4179ZM16.8768 28.2838H34.1232C34.6118 28.2838 35.0217 28.1125 35.3529 27.7701C35.684 27.4277 35.849 27.0044 35.8478 26.5002C35.8467 25.9961 35.6811 25.5728 35.3511 25.2303C35.0212 24.8879 34.6118 24.7167 34.1232 24.7167H16.8768C16.3882 24.7167 15.9789 24.8879 15.6489 25.2303C15.3189 25.5728 15.1533 25.9961 15.1522 26.5002C15.151 27.0044 15.3166 27.4282 15.6489 27.7719C15.9812 28.1155 16.3905 28.2861 16.8768 28.2838ZM16.8768 21.1496H34.1232C34.6118 21.1496 35.0217 20.9784 35.3529 20.6359C35.684 20.2935 35.849 19.8702 35.8478 19.366C35.8467 18.8619 35.6811 18.4386 35.3511 18.0962C35.0212 17.7537 34.6118 17.5825 34.1232 17.5825H16.8768C16.3882 17.5825 15.9789 17.7537 15.6489 18.0962C15.3189 18.4386 15.1533 18.8619 15.1522 19.366C15.151 19.8702 15.3166 20.2941 15.6489 20.6377C15.9812 20.9813 16.3905 21.152 16.8768 21.1496Z" fill="black"/>
</g>
</svg>
