<svg width="54" height="58" viewBox="0 0 54 58" fill="none" xmlns="http://www.w3.org/2000/svg">
<g id="material-symbols:post-add">
<path id="Vector" d="M14.4444 48C13.4972 48 12.6866 47.5978 12.0127 46.7934C11.3387 45.989 11.0011 45.0208 11 43.8889V15.1111C11 13.9806 11.3376 13.0131 12.0127 12.2087C12.6878 11.4043 13.4984 11.0014 14.4444 11H29.9444V15.1111H14.4444V43.8889H38.5556V25.3889H42V43.8889C42 45.0194 41.663 45.9876 40.9891 46.7934C40.3151 47.5992 39.5039 48.0014 38.5556 48H14.4444ZM19.6111 39.7778V35.6667H33.3889V39.7778H19.6111ZM19.6111 33.6111V29.5H33.3889V33.6111H19.6111ZM19.6111 27.4444V23.3333H33.3889V27.4444H19.6111ZM35.1111 23.3333V19.2222H31.6667V15.1111H35.1111V11H38.5556V15.1111H42V19.2222H38.5556V23.3333H35.1111Z" fill="black"/>
</g>
</svg>
