<svg width="53" height="56" viewBox="0 0 53 56" fill="none" xmlns="http://www.w3.org/2000/svg">
<g id="material-symbols:orders-rounded">
<path id="Vector" d="M11.9835 34.4073V14.3934L9.17099 8.24234C8.95929 7.7833 8.94417 7.31631 9.12562 6.84136C9.30708 6.36642 9.62463 6.02245 10.0783 5.80945C10.5319 5.59646 10.9934 5.57382 11.4628 5.74152C11.9321 5.90922 12.2721 6.22259 12.4826 6.68162L15.9756 14.3016H37.0244L40.5174 6.68162C40.7291 6.22259 41.0697 5.90126 41.539 5.71765C42.0084 5.53403 42.4693 5.56464 42.9217 5.80945C43.3754 6.02367 43.6929 6.36825 43.8744 6.8432C44.0558 7.31815 44.0407 7.78453 43.829 8.24234L41.0164 14.3934V34.4073C41.0164 35.4172 40.6614 36.282 39.9513 37.0018C39.2412 37.7216 38.3866 38.0808 37.3873 38.0796H15.6127C14.6147 38.0796 13.7606 37.7203 13.0505 37.0018C12.3404 36.2832 11.9848 35.4184 11.9835 34.4073ZM22.8709 25.2266H30.1291C30.6432 25.2266 31.0745 25.0504 31.4229 24.6978C31.7713 24.3453 31.9449 23.9095 31.9437 23.3905C31.9425 22.8715 31.7683 22.4357 31.4211 22.0832C31.0739 21.7306 30.6432 21.5543 30.1291 21.5543H22.8709C22.3568 21.5543 21.9261 21.7306 21.5789 22.0832C21.2317 22.4357 21.0575 22.8715 21.0563 23.3905C21.0551 23.9095 21.2293 24.3459 21.5789 24.6997C21.9285 25.0534 22.3592 25.2291 22.8709 25.2266Z" fill="black"/>
</g>
</svg>
