<svg width="60" height="60" viewBox="0 0 60 60" fill="none" xmlns="http://www.w3.org/2000/svg">
<g id="material-symbols:edit-outline-rounded">
<path id="Vector" d="M12.5 47.5H16.0625L40.5 23.0625L36.9375 19.5L12.5 43.9375V47.5ZM10 52.5C9.29167 52.5 8.69833 52.26 8.22 51.78C7.74167 51.3 7.50167 50.7067 7.5 50V43.9375C7.5 43.2708 7.625 42.635 7.875 42.03C8.125 41.425 8.47917 40.8942 8.9375 40.4375L40.5 8.9375C41 8.47917 41.5525 8.125 42.1575 7.875C42.7625 7.625 43.3975 7.5 44.0625 7.5C44.7275 7.5 45.3733 7.625 46 7.875C46.6267 8.125 47.1683 8.5 47.625 9L51.0625 12.5C51.5625 12.9583 51.9267 13.5 52.155 14.125C52.3833 14.75 52.4983 15.375 52.5 16C52.5 16.6667 52.385 17.3025 52.155 17.9075C51.925 18.5125 51.5608 19.0642 51.0625 19.5625L19.5625 51.0625C19.1042 51.5208 18.5725 51.875 17.9675 52.125C17.3625 52.375 16.7275 52.5 16.0625 52.5H10ZM38.6875 21.3125L36.9375 19.5L40.5 23.0625L38.6875 21.3125Z" fill="#6CE9BF"/>
</g>
</svg>
