<svg width="46" height="42" viewBox="0 0 46 42" fill="none" xmlns="http://www.w3.org/2000/svg">
<g id="material-symbols:payments-outline-rounded">
<path id="Vector" d="M26.8333 22.75C25.2361 22.75 23.8784 22.2396 22.7604 21.2188C21.6423 20.1979 21.0833 18.9583 21.0833 17.5C21.0833 16.0417 21.6423 14.8021 22.7604 13.7813C23.8784 12.7604 25.2361 12.25 26.8333 12.25C28.4305 12.25 29.7882 12.7604 30.9062 13.7813C32.0243 14.8021 32.5833 16.0417 32.5833 17.5C32.5833 18.9583 32.0243 20.1979 30.9062 21.2188C29.7882 22.2396 28.4305 22.75 26.8333 22.75ZM13.4166 28C12.3625 28 11.4603 27.6576 10.7103 26.9728C9.96024 26.2879 9.58457 25.4637 9.58329 24.5V10.5C9.58329 9.5375 9.95896 8.71383 10.7103 8.029C11.4616 7.34417 12.3637 7.00117 13.4166 7H40.25C41.3041 7 42.2069 7.343 42.9582 8.029C43.7095 8.715 44.0846 9.53867 44.0833 10.5V24.5C44.0833 25.4625 43.7083 26.2868 42.9582 26.9728C42.2081 27.6588 41.3054 28.0012 40.25 28H13.4166ZM17.25 24.5H36.4166C36.4166 23.5375 36.7923 22.7138 37.5436 22.029C38.295 21.3442 39.1971 21.0012 40.25 21V14C39.1958 14 38.2937 13.6576 37.5436 12.9728C36.7936 12.2879 36.4179 11.4637 36.4166 10.5H17.25C17.25 11.4625 16.8749 12.2868 16.1249 12.9728C15.3748 13.6588 14.4721 14.0012 13.4166 14V21C14.4708 21 15.3735 21.343 16.1249 22.029C16.8762 22.715 17.2512 23.5387 17.25 24.5ZM36.4166 35H5.74996C4.69579 35 3.79368 34.6576 3.04363 33.9728C2.29357 33.2879 1.9179 32.4637 1.91663 31.5V14C1.91663 13.5042 2.10063 13.0888 2.46863 12.754C2.83663 12.4192 3.29151 12.2512 3.83329 12.25C4.37507 12.2488 4.8306 12.4168 5.19988 12.754C5.56915 13.0912 5.75251 13.5065 5.74996 14V31.5H36.4166C36.9597 31.5 37.4152 31.668 37.7832 32.004C38.1512 32.34 38.3346 32.7553 38.3333 33.25C38.332 33.7447 38.148 34.1606 37.7813 34.4978C37.4146 34.8349 36.9597 35.0023 36.4166 35Z" fill="black"/>
</g>
</svg>
