<svg width="45" height="45" viewBox="0 0 45 45" fill="none" xmlns="http://www.w3.org/2000/svg">
<g id="material-symbols:add-2-rounded">
<g id="Group 483345">
<path id="Vector" d="M22.5 39.375C21.9688 39.375 21.5238 39.195 21.165 38.835C20.8063 38.475 20.6263 38.03 20.625 37.5V24.375H7.50001C6.96876 24.375 6.52376 24.195 6.16501 23.835C5.80626 23.475 5.62626 23.03 5.62501 22.5C5.62376 21.97 5.80376 21.525 6.16501 21.165C6.52626 20.805 6.97126 20.625 7.50001 20.625H20.625V7.50001C20.625 6.96876 20.805 6.52376 21.165 6.16501C21.525 5.80626 21.97 5.62626 22.5 5.62501C23.03 5.62376 23.4756 5.80376 23.8369 6.16501C24.1981 6.52626 24.3775 6.97126 24.375 7.50001V20.625H37.5C38.0313 20.625 38.4769 20.805 38.8369 21.165C39.1969 21.525 39.3763 21.97 39.375 22.5C39.3738 23.03 39.1938 23.4756 38.835 23.8369C38.4763 24.1981 38.0313 24.3775 37.5 24.375H24.375V37.5C24.375 38.0313 24.195 38.4769 23.835 38.8369C23.475 39.1969 23.03 39.3763 22.5 39.375Z" fill="white"/>
</g>
</g>
</svg>
