<svg width="6" height="6" viewBox="0 0 6 6" fill="none" xmlns="http://www.w3.org/2000/svg">
<path id="Vector" d="M2.67796 4.01425C2.65923 3.83716 2.67971 3.65813 2.73794 3.48984C2.79616 3.32156 2.89071 3.16815 3.01487 3.0405C3.13903 2.91285 3.28976 2.81409 3.45637 2.75123C3.62297 2.68836 3.80137 2.66293 3.97891 2.67674C4.33364 2.67674 4.67384 2.53582 4.92467 2.28499C5.1755 2.03416 5.31642 1.69396 5.31642 1.33923C5.31642 0.984501 5.1755 0.6443 4.92467 0.393468C4.67384 0.142636 4.33364 0.00172057 3.97891 0.00172057C3.44938 -0.0140874 2.92225 0.079173 2.43029 0.275706C1.93833 0.47224 1.49204 0.767847 1.11915 1.14416C0.746271 1.52047 0.454761 1.96945 0.262738 2.46319C0.0707156 2.95693 -0.0177163 3.48489 0.00293757 4.01425C0.00293758 4.36898 0.143853 4.70918 0.394685 4.96001C0.645517 5.21084 0.985718 5.35176 1.34045 5.35176C1.69518 5.35176 2.03538 5.21084 2.28621 4.96001C2.53704 4.70918 2.67796 4.36898 2.67796 4.01425Z" fill="white"/>
</svg>
